<?xml version="1.0" standalone="no"?>
<!DOCTYPE svg PUBLIC "-//W3C//DTD SVG 20010904//EN"
 "http://www.w3.org/TR/2001/REC-SVG-20010904/DTD/svg10.dtd">
<svg version="1.0" xmlns="http://www.w3.org/2000/svg"
 width="1024.000000pt" height="1024.000000pt" viewBox="0 0 1024.000000 1024.000000"
 preserveAspectRatio="xMidYMid meet">

<g transform="translate(0.000000,1024.000000) scale(0.100000,-0.100000)"
fill="#000000" stroke="none">
<path d="M5587 7630 c-40 -10 -126 -68 -191 -129 -136 -127 -367 -464 -529
-771 -95 -181 -287 -572 -287 -586 0 -6 -27 -67 -86 -192 -24 -51 -44 -98 -44
-105 0 -7 -6 -21 -13 -32 -7 -11 -27 -54 -44 -95 -77 -186 -141 -305 -190
-351 -77 -74 -245 -198 -418 -309 -88 -56 -171 -109 -185 -118 -14 -9 -34 -22
-45 -28 -11 -6 -76 -44 -145 -85 -261 -157 -457 -261 -550 -294 -24 -8 -48
-19 -54 -24 -22 -18 -254 -89 -328 -101 -72 -12 -138 -39 -138 -58 0 -34 92
-77 144 -68 13 2 60 10 103 16 132 20 467 142 555 202 14 10 29 18 33 18 9 0
281 156 390 224 50 31 104 63 120 72 95 52 326 209 360 244 28 29 65 40 65 19
0 -5 -18 -45 -39 -87 -22 -42 -59 -117 -82 -167 -60 -131 -289 -591 -360 -725
-87 -163 -309 -561 -328 -587 -9 -12 -41 -32 -71 -45 -222 -93 -446 -227 -562
-337 -210 -197 -264 -455 -110 -523 45 -20 48 -21 112 -4 88 23 199 98 332
225 139 133 224 239 353 444 56 90 62 96 120 120 58 25 151 57 285 97 148 44
204 60 216 60 6 0 34 6 60 14 27 8 103 26 169 41 66 15 143 33 170 40 28 8 88
21 135 29 47 9 103 20 125 25 22 6 90 20 150 32 61 12 139 28 175 35 36 7 76
15 90 18 14 3 93 17 175 31 83 14 182 32 220 40 39 8 156 26 260 41 105 14
198 30 208 36 10 5 25 26 34 45 18 45 3 90 -34 99 -31 8 -152 -2 -258 -21 -44
-8 -123 -21 -175 -30 -52 -9 -140 -24 -195 -35 -55 -10 -140 -26 -190 -34 -49
-9 -119 -23 -155 -31 -36 -8 -101 -21 -145 -30 -44 -9 -123 -25 -175 -36 -52
-11 -129 -26 -170 -34 -41 -8 -86 -19 -100 -24 -14 -5 -41 -13 -60 -16 -70
-13 -445 -106 -460 -114 -9 -5 -31 -12 -50 -16 -19 -4 -74 -20 -123 -36 -119
-41 -131 -32 -72 57 53 80 436 845 537 1074 11 25 28 63 39 85 10 22 50 113
89 203 38 90 89 191 112 225 46 68 161 184 402 405 180 166 387 390 524 569
50 67 92 124 92 128 0 3 18 30 40 60 22 30 40 57 40 59 0 5 45 80 97 162 21
33 150 295 179 364 89 214 106 272 111 375 4 92 3 104 -19 145 -47 87 -139
125 -241 100z m101 -190 c15 -29 8 -96 -14 -138 -7 -15 -14 -33 -14 -40 0 -8
-6 -28 -14 -45 -33 -72 -76 -176 -76 -181 0 -6 -66 -141 -116 -236 -85 -164
-304 -481 -473 -685 -91 -109 -396 -425 -427 -442 -36 -20 -38 10 -4 65 16 26
57 103 91 172 78 160 298 600 309 620 34 57 140 251 140 255 0 8 148 242 208
330 98 141 231 291 302 339 34 23 72 17 88 -14z m-2556 -4218 c-10 -67 -305
-386 -402 -435 -67 -33 -86 -34 -93 -4 -27 106 102 238 433 445 43 27 66 25
62 -6z"/>
<path d="M7295 6706 c-87 -42 -314 -276 -650 -670 -77 -90 -260 -316 -306
-377 -32 -43 -124 -161 -194 -250 -16 -20 -50 -64 -74 -96 -101 -132 -313
-393 -321 -393 -25 0 -12 63 35 165 7 17 17 44 21 60 4 17 10 35 14 40 8 12
93 276 115 360 45 165 82 413 71 470 -4 16 -16 39 -28 52 -49 52 -122 16 -260
-125 -92 -94 -321 -371 -404 -488 -16 -23 -60 -86 -99 -140 -38 -55 -73 -103
-77 -109 -4 -5 -75 -100 -158 -210 -82 -110 -200 -265 -261 -345 -173 -227
-199 -270 -199 -330 0 -49 9 -60 49 -60 65 0 91 26 251 250 36 50 92 126 125
170 145 189 283 375 360 484 170 242 295 411 365 495 142 168 156 176 146 79
-4 -35 -11 -76 -16 -93 -5 -16 -21 -82 -36 -145 -29 -122 -68 -256 -89 -305
-8 -16 -17 -43 -21 -60 -4 -16 -10 -34 -14 -40 -4 -5 -13 -28 -20 -50 -6 -22
-18 -53 -25 -70 -7 -16 -27 -77 -45 -135 -17 -58 -35 -119 -41 -136 -15 -50
-11 -74 20 -105 35 -35 49 -36 103 -8 91 47 384 369 615 679 23 30 52 67 65
82 14 15 33 39 44 53 29 40 321 408 337 425 13 14 76 93 140 178 61 80 156
184 201 220 14 11 15 9 10 -20 -6 -33 -19 -64 -42 -103 -24 -41 -135 -283
-179 -390 -25 -60 -54 -129 -64 -152 -10 -23 -19 -46 -19 -50 -1 -4 -9 -26
-20 -48 -11 -22 -20 -47 -20 -55 0 -8 -6 -27 -14 -41 -25 -48 -182 -558 -206
-669 -5 -25 -23 -108 -40 -185 -42 -195 -66 -475 -50 -605 17 -137 28 -187 55
-255 64 -161 175 -302 256 -326 82 -25 167 32 144 97 -6 16 -33 44 -63 64 -80
56 -106 85 -146 163 -66 132 -80 199 -80 392 0 161 6 218 44 405 18 88 48 216
68 290 12 41 28 102 37 135 9 33 24 85 34 115 10 30 31 96 46 145 16 50 32 94
37 100 4 5 8 15 8 23 0 7 11 44 25 80 55 143 108 279 125 317 10 22 39 90 65
150 26 61 59 135 73 165 140 301 179 382 251 520 68 128 78 183 41 220 -26 26
-54 25 -115 -4z"/>
</g>
</svg>
